<svg width="1543" height="850" viewBox="0 0 1543 850" fill="none" xmlns="http://www.w3.org/2000/svg">
<g clip-path="url(#clip0_2_2)">
<g filter="url(#filter0_d_2_2)">
<path d="M-216.102 1586.57C-168.051 1611.14 -108.861 1611.14 -60.8092 1586.57L1656.5 819.5C1681.15 806.89 1661.31 483.681 1637.08 391.965C1632.6 374.984 1617.62 366.435 1600.44 362.778L387.067 104.519C369.922 100.87 353.019 94.4869 335.496 94.0356C329.76 93.8879 323.922 94.1997 318.62 94.971C308.726 96.4101 300.145 101.949 292.023 107.779L-51.3765 354.287C-74.5248 370.904 -100.957 382.382 -128.902 387.954L-527.464 467.416C-550.363 471.982 -572.286 480.522 -592.239 492.65L-1339.8 947.037C-1368.07 961.487 -1368.07 997.629 -1339.8 1012.08L-216.102 1586.57Z" fill="url(#paint0_linear_2_2)"/>
<path d="M-61.0131 1586.12L-61.0251 1586.12L-61.0369 1586.13C-108.945 1610.62 -167.966 1610.62 -215.875 1586.13L-1339.58 1011.63C-1353.55 1004.49 -1360.5 992.01 -1360.5 979.557C-1360.5 967.105 -1353.55 954.625 -1339.58 947.482L-1339.56 947.474L-1339.54 947.464L-591.979 493.077C-572.076 480.98 -550.208 472.461 -527.366 467.907L-128.804 388.444C-100.789 382.859 -74.2911 371.351 -51.085 354.693L292.315 108.185C300.436 102.355 308.93 96.8857 318.692 95.4658C323.963 94.699 329.773 94.3884 335.483 94.5355C344.191 94.7597 352.756 96.4582 361.304 98.5636C364.459 99.341 367.619 100.176 370.783 101.011C376.166 102.433 381.559 103.858 386.962 105.008L1600.34 363.267C1617.44 366.908 1632.19 375.381 1636.6 392.093C1648.7 437.895 1659.71 541.58 1664.62 635.423C1667.07 682.338 1668 726.771 1666.77 760.257C1666.16 777.003 1665.01 790.995 1663.24 801.186C1662.36 806.283 1661.33 810.409 1660.14 813.446C1658.95 816.505 1657.64 818.347 1656.28 819.049C1656.28 819.051 1656.28 819.053 1656.27 819.055L-61.0131 1586.12Z" stroke="black"/>
</g>
</g>
<rect x="0.5" y="0.5" width="1542" height="849" stroke="#510FA8"/>
<defs>
<filter id="filter0_d_2_2" x="-1365" y="94" width="3036.81" height="1519" filterUnits="userSpaceOnUse" color-interpolation-filters="sRGB">
<feFlood flood-opacity="0" result="BackgroundImageFix"/>
<feColorMatrix in="SourceAlpha" type="matrix" values="0 0 0 0 0 0 0 0 0 0 0 0 0 0 0 0 0 0 127 0" result="hardAlpha"/>
<feOffset dy="4"/>
<feGaussianBlur stdDeviation="2"/>
<feComposite in2="hardAlpha" operator="out"/>
<feColorMatrix type="matrix" values="0 0 0 0 0 0 0 0 0 0 0 0 0 0 0 0 0 0 0.25 0"/>
<feBlend mode="normal" in2="BackgroundImageFix" result="effect1_dropShadow_2_2"/>
<feBlend mode="normal" in="SourceGraphic" in2="effect1_dropShadow_2_2" result="shape"/>
</filter>
<linearGradient id="paint0_linear_2_2" x1="1125.51" y1="236.812" x2="321.46" y2="1741.92" gradientUnits="userSpaceOnUse">
<stop stop-color="#510FA8"/>
<stop offset="0.666667" stop-color="#320FA8"/>
</linearGradient>
<clipPath id="clip0_2_2">
<rect width="1543" height="850" fill="white"/>
</clipPath>
</defs>
</svg>
