<svg width="730" height="222" viewBox="0 0 730 222" fill="none" xmlns="http://www.w3.org/2000/svg">
<path d="M265.488 95.1966C265.488 105.963 262.296 116.487 256.314 125.439C250.333 134.39 241.832 141.367 231.885 145.487C221.938 149.607 210.993 150.685 200.434 148.585C189.875 146.485 180.176 141.3 172.563 133.688C164.95 126.075 159.766 116.375 157.665 105.816C155.565 95.257 156.643 84.312 160.763 74.3655C164.883 64.4189 171.86 55.9173 180.812 49.936C189.763 43.9547 200.288 40.7622 211.054 40.7622C218.211 40.7303 225.304 42.1166 231.923 44.8409C238.541 47.5652 244.555 51.5736 249.616 56.6346C254.677 61.6957 258.685 67.7091 261.409 74.3278C264.134 80.9465 265.52 88.0392 265.488 95.1966V95.1966Z" fill="#F2F2F2"/>
<path d="M233.316 82.1721L233.047 82.6576C235.444 76.7493 233.264 69.4689 228.988 65.0139C224.711 60.5589 218.766 58.5222 212.912 57.7141C208.566 56.9477 204.097 57.2949 199.923 58.7235C193.939 61.0288 189.367 66.3652 185.55 71.9165C183.804 74.4556 182.087 77.3504 182.261 80.524C182.422 83.4691 184.17 85.9684 185.602 88.467C187.034 90.9657 188.229 94.0658 187.202 96.7929C186.59 98.4181 185.295 99.5886 184.245 100.918C183.196 102.247 182.332 104.044 182.839 105.712C183.064 106.351 183.451 106.919 183.962 107.363C184.473 107.807 185.09 108.111 185.753 108.245C187.038 108.46 188.352 108.428 189.625 108.153L222.994 103.112C225.261 102.769 227.412 101.883 229.263 100.53C231.114 99.1763 232.611 97.3951 233.625 95.3383C234.639 93.2814 235.14 91.0099 235.086 88.7173C235.033 86.4248 234.425 84.1792 233.316 82.1721V82.1721Z" fill="#2F2E41"/>
<path d="M208.496 102.879C217.506 102.879 224.811 95.5749 224.811 86.5646C224.811 77.5543 217.506 70.25 208.496 70.25C199.486 70.25 192.181 77.5543 192.181 86.5646C192.181 95.5749 199.486 102.879 208.496 102.879Z" fill="#FFB9B9"/>
<path d="M251.928 131.137C242.497 141.868 229.225 148.46 214.976 149.489C200.728 150.519 186.646 145.904 175.77 136.641L180.439 123.613C181.494 121.299 183.159 119.316 185.256 117.877C187.352 116.437 189.801 115.595 192.34 115.441L195.31 115.259L202.392 109.151C202.392 109.151 221.476 108.469 221.193 108.143L232.753 115.096L232.743 115.048L237.287 115.326C239.826 115.479 242.275 116.321 244.372 117.761C246.468 119.2 248.133 121.184 249.188 123.498L251.928 131.137Z" fill="#6C63FF"/>
<path d="M223.971 71.4228C223.55 69.1949 221.277 68.1759 219.331 67.6821C213.684 66.2413 207.809 65.9188 202.038 66.7325C197.832 67.3325 193.525 68.6553 190.473 71.939C188.011 74.7039 186.617 78.2559 186.539 81.9568C186.415 84.1696 186.909 86.3734 187.967 88.321C188.44 89.2277 189.141 89.9958 190.001 90.5499C190.861 91.1039 191.85 91.425 192.871 91.4814L193.066 92.1621C197.29 91.4817 201.316 89.897 204.87 87.5164C208.424 85.1359 211.422 82.0157 213.658 78.3693C212.759 81.5808 210.969 84.4721 208.496 86.7093C214.026 84.4965 218.833 80.7918 222.381 76.0078C223.35 74.7217 224.291 73.1177 223.971 71.4228Z" fill="#2F2E41"/>
<path d="M674.93 166.885C704.993 166.885 729.364 142.514 729.364 112.451C729.364 82.3873 704.993 58.0161 674.93 58.0161C644.867 58.0161 620.496 82.3873 620.496 112.451C620.496 142.514 644.867 166.885 674.93 166.885Z" fill="#F2F2F2"/>
<path d="M659.982 92.025C664.227 92.025 667.667 88.5842 667.667 84.3398C667.667 80.0954 664.227 76.6546 659.982 76.6546C655.738 76.6546 652.297 80.0954 652.297 84.3398C652.297 88.5842 655.738 92.025 659.982 92.025Z" fill="#2F2E41"/>
<path d="M672.279 121.229C683.031 121.229 691.748 112.512 691.748 101.76C691.748 91.0071 683.031 82.2904 672.279 82.2904C661.526 82.2904 652.809 91.0071 652.809 101.76C652.809 112.512 661.526 121.229 672.279 121.229Z" fill="#2F2E41"/>
<path d="M684.634 89.2758C681.861 87.5857 678.686 86.6715 675.439 86.6287C672.193 86.5858 668.994 87.4161 666.178 89.0325C663.362 90.649 661.032 92.9922 659.432 95.8173C657.832 98.6424 657.02 101.846 657.081 105.092C665.143 107.116 673.612 108.665 682.209 105.576L684.239 100.607L685.436 105.58C688.054 106.65 690.679 107.555 693.304 105.569C693.411 102.332 692.667 99.1236 691.145 96.2644C689.624 93.4051 687.378 90.9953 684.634 89.2758V89.2758Z" fill="#2F2E41"/>
<path d="M715.888 148.871C706.457 159.602 693.185 166.194 678.937 167.223C664.688 168.253 650.606 163.638 639.73 154.375L644.399 141.347C645.455 139.033 647.12 137.05 649.216 135.611C651.313 134.171 653.761 133.329 656.3 133.175L659.27 132.993L666.353 126.885C666.353 126.885 685.436 126.203 685.153 125.877L696.713 132.83L696.703 132.782L701.248 133.06C703.786 133.213 706.235 134.055 708.332 135.495C710.428 136.934 712.093 138.918 713.148 141.232L715.888 148.871Z" fill="#6C63FF"/>
<path d="M574.488 54.5309C574.469 65.297 571.258 75.8157 565.261 84.7568C559.263 93.6978 550.75 100.66 540.796 104.762C530.842 108.864 519.895 109.923 509.339 107.804C498.784 105.685 489.094 100.483 481.495 92.857C473.895 85.2308 468.728 75.5223 466.646 64.9594C464.565 54.3964 465.662 43.4534 469.8 33.5141C473.938 23.5749 480.93 15.0858 489.892 9.12031C498.854 3.15486 509.384 -0.0190032 520.15 8.56009e-05C527.304 -0.00579717 534.388 1.40209 540.996 4.14282C547.604 6.88355 553.605 10.9031 558.654 15.9705C563.704 21.0378 567.702 27.0531 570.419 33.6706C573.137 40.2881 574.519 47.3773 574.488 54.5309V54.5309Z" fill="#F2F2F2"/>
<path d="M494.824 36.7269C497.075 29.5536 502.193 22.9745 509.272 20.5495C516.351 18.1245 526.717 21.8185 532.039 27.1225C541.774 36.8245 544.149 70.1542 537.461 80.6868C536.131 80.6164 531.54 80.5643 530.194 80.5139L528.289 74.1656V80.4513C526.144 80.385 523.982 80.3392 521.804 80.314C514.499 80.2234 507.514 77.3044 502.317 72.1705C497.12 67.0366 494.116 60.0878 493.937 52.7849C493.762 45.7986 493.937 39.5538 494.824 36.7269Z" fill="#2F2E41"/>
<path d="M519.246 60.5011C527.814 60.5011 534.76 53.5555 534.76 44.9877C534.76 36.4199 527.814 29.4743 519.246 29.4743C510.679 29.4743 503.733 36.4199 503.733 44.9877C503.733 53.5555 510.679 60.5011 519.246 60.5011Z" fill="#9E616A"/>
<path d="M505.858 31.3632L523.72 22.4191C527.372 24.0647 530.517 26.6573 532.829 29.928C535.141 33.1988 536.536 37.0285 536.87 41.0201L537.315 46.3531L529.835 44.4491L529.016 37.6299L527.745 43.9172L524.293 43.0389L524.326 32.452L520.872 43.0313L508.544 40.1989L505.858 31.3632Z" fill="#2F2E41"/>
<path d="M560.448 90.4569C551.017 101.187 537.745 107.779 523.496 108.809C509.248 109.839 495.166 105.224 484.29 95.9608L488.959 82.9328C490.014 80.6189 491.679 78.6358 493.776 77.1961C495.872 75.7565 498.321 74.9147 500.86 74.7609L503.83 74.5786L510.913 68.4701C510.913 68.4701 529.996 67.7887 529.713 67.4624L541.273 74.4154L541.263 74.3674L545.807 74.6458C548.346 74.7989 550.795 75.6404 552.892 77.0801C554.988 78.5198 556.653 80.5033 557.708 82.8176L560.448 90.4569Z" fill="#6C63FF"/>
<path d="M370.409 196.885C400.472 196.885 424.843 172.514 424.843 142.451C424.843 112.387 400.472 88.0161 370.409 88.0161C340.345 88.0161 315.974 112.387 315.974 142.451C315.974 172.514 340.345 196.885 370.409 196.885Z" fill="#F2F2F2"/>
<path d="M368.906 149.194C378.503 149.194 386.282 141.414 386.282 131.818C386.282 122.221 378.503 114.442 368.906 114.442C359.31 114.442 351.53 122.221 351.53 131.818C351.53 141.414 359.31 149.194 368.906 149.194Z" fill="#FFB6B6"/>
<path d="M411.246 178.871C401.816 189.602 388.544 196.194 374.295 197.223C360.047 198.253 345.965 193.638 335.089 184.375L339.758 171.347C340.813 169.033 342.478 167.05 344.575 165.611C346.671 164.171 349.12 163.329 351.658 163.175L354.629 162.993L361.711 156.885C361.711 156.885 380.795 156.203 380.512 155.877L392.072 162.83L392.062 162.782L396.606 163.06C399.145 163.213 401.594 164.055 403.69 165.495C405.787 166.934 407.452 168.918 408.507 171.232L411.246 178.871Z" fill="#6C63FF"/>
<path d="M387.232 121.041C385.764 115.786 382.428 111.247 377.85 108.277C374.202 105.944 369.65 104.752 365.517 105.986C361.384 107.22 357.963 111.276 358.233 115.658C357.468 115.457 356.661 115.474 355.905 115.708C355.148 115.941 354.472 116.382 353.954 116.98C352.917 118.204 352.196 119.664 351.854 121.231C350.528 126.144 350.616 131.332 352.107 136.198L352.025 136.896C354.042 136.562 355.571 134.832 356.522 132.989C357.473 131.146 358.02 129.101 359.051 127.303C360.082 125.505 361.793 123.901 363.835 123.845L363.655 126.966C365.412 126.061 367.169 125.156 368.926 124.251C368.508 125.25 368.09 126.25 367.672 127.25C369.206 126.608 370.741 125.967 372.275 125.326C372.103 126.287 371.932 127.248 371.76 128.209C372.163 127.375 372.73 126.631 373.428 126.022C374.126 125.413 374.941 124.953 375.822 124.668C376.703 124.383 377.633 124.279 378.556 124.364C379.478 124.449 380.374 124.72 381.188 125.161C383.023 126.395 384.345 128.256 384.908 130.394C385.466 132.528 385.765 134.721 385.799 136.926C388.17 131.975 388.679 126.336 387.232 121.041V121.041Z" fill="#2F2E41"/>
<path d="M55.2699 221.631C85.3332 221.631 109.704 197.26 109.704 167.197C109.704 137.134 85.3332 112.762 55.2699 112.762C25.2066 112.762 0.83548 137.134 0.83548 167.197C0.83548 197.26 25.2066 221.631 55.2699 221.631Z" fill="#F2F2F2"/>
<path d="M54.0716 172.843C63.192 172.843 70.5856 165.45 70.5856 156.329C70.5856 147.209 63.192 139.815 54.0716 139.815C44.9511 139.815 37.5575 147.209 37.5575 156.329C37.5575 165.45 44.9511 172.843 54.0716 172.843Z" fill="#9E616A"/>
<path d="M95.407 203.137C85.9764 213.868 72.7043 220.46 58.4557 221.489C44.2072 222.519 30.1252 217.904 19.2497 208.641L23.9187 195.613C24.9738 193.299 26.6389 191.316 28.7353 189.877C30.8318 188.437 33.2805 187.595 35.819 187.441L38.7893 187.259L45.8719 181.151C45.8719 181.151 64.9556 180.469 64.6725 180.143L76.2322 187.096L76.2226 187.048L80.7668 187.326C83.3054 187.479 85.7545 188.321 87.851 189.761C89.9476 191.2 91.6125 193.184 92.6671 195.498L95.407 203.137Z" fill="#6C63FF"/>
</svg>
