<svg width="892" height="486" viewBox="0 0 892 486" fill="none" xmlns="http://www.w3.org/2000/svg">
<g id="peopel 1 1" clip-path="url(#clip0_0_3)">
<g id="peopel 1" filter="url(#filter0_i_0_3)">
<path id="Vector" d="M131.541 414.184H755.541V376.567C755.541 368.711 746.074 360.978 729.567 355.351L729.397 355.293C718.252 351.36 647.006 323.377 608.469 324.224C588.112 324.67 570.683 328.12 556.668 334.48C513.043 354.283 455.738 361.599 425.462 355.851C398.78 350.785 325.531 342.408 298.466 342.786C260.561 343.308 260.45 349.64 221.541 370.078C206.681 377.877 201.123 378.856 131.541 385.078V414.184Z" fill="#F2F2F2"/>
<path id="Vector_2" d="M30.9428 358.893C29.5841 338.712 38.1515 318.325 55.9041 310.834C52.3154 331.627 56.737 354.732 68.138 374.763C72.5785 382.565 78.2812 390.894 77.0676 399.046C76.3125 404.118 72.8619 408.145 68.6455 410.767C64.4287 413.389 59.4601 414.789 54.5521 416.163L53.7047 417.053C42.0401 398.987 32.3016 379.074 30.9428 358.893Z" fill="#F2F2F2"/>
<path id="Vector_3" d="M56.1652 311.204C47.3613 324.758 43.4499 340.913 45.0783 356.993C45.3476 360.666 46.1702 364.278 47.5184 367.705C48.9928 371.138 51.254 374.177 54.1194 376.576C56.7717 378.886 59.7143 380.979 61.8382 383.814C62.8864 385.197 63.6449 386.778 64.0682 388.461C64.4916 390.144 64.5711 391.896 64.302 393.61C63.6829 397.673 61.5798 401.066 59.3955 404.296C56.9702 407.882 54.3877 411.561 53.9477 416.175C53.8944 416.734 53.0008 416.496 53.054 415.938C53.8195 407.911 60.5893 403.03 62.8647 395.719C63.4834 393.953 63.6944 392.07 63.4819 390.21C63.2694 388.351 62.6388 386.564 61.6375 384.983C59.6586 381.984 56.6256 379.823 53.9228 377.505C51.0928 375.193 48.791 372.302 47.1725 369.026C45.6601 365.656 44.7017 362.064 44.3344 358.389C43.4165 350.465 43.7926 342.444 45.4479 334.64C47.2185 326.051 50.614 317.88 55.4519 310.565C55.7487 310.12 56.46 310.761 56.1652 311.204Z" fill="white"/>
<path id="Vector_4" d="M44.2853 351.591C41.365 351.019 38.6956 349.551 36.6484 347.391C34.6012 345.232 33.278 342.487 32.863 339.541C32.7988 338.967 33.6913 338.966 33.7555 339.54C34.1373 342.284 35.3696 344.84 37.2792 346.847C39.1887 348.854 41.6794 350.213 44.401 350.731C44.4581 350.738 44.5133 350.756 44.5633 350.784C44.6134 350.812 44.6573 350.85 44.6926 350.896C44.7278 350.941 44.7536 350.993 44.7686 351.049C44.7835 351.104 44.7873 351.162 44.7796 351.219C44.772 351.276 44.753 351.331 44.7239 351.381C44.6948 351.431 44.6562 351.474 44.6102 351.509C44.5642 351.543 44.5118 351.568 44.456 351.582C44.4002 351.596 44.3422 351.599 44.2853 351.591Z" fill="white"/>
<path id="Vector_5" d="M52.6421 375.56C54.8212 373.936 56.6317 371.869 57.9544 369.495C59.2772 367.121 60.0822 364.494 60.3165 361.787C60.3718 361.228 61.2655 361.465 61.2101 362.023C60.9607 364.84 60.1171 367.572 58.7351 370.038C57.3531 372.505 55.464 374.651 53.1923 376.335C52.7577 376.653 52.2099 375.876 52.6421 375.56Z" fill="white"/>
<path id="Vector_6" d="M48.2593 326.713C49.2779 327.15 50.3913 327.321 51.494 327.207C52.5968 327.094 53.6522 326.7 54.5603 326.065C54.9899 325.741 55.5372 326.518 55.1105 326.84C54.1044 327.538 52.9386 327.971 51.721 328.099C50.5033 328.227 49.273 328.046 48.1437 327.573C48.0265 327.539 47.9243 327.466 47.8537 327.366C47.7831 327.267 47.7482 327.146 47.7547 327.024C47.763 326.968 47.7833 326.915 47.8144 326.868C47.8455 326.821 47.8865 326.781 47.9346 326.751C47.9826 326.721 48.0366 326.703 48.0927 326.696C48.1488 326.689 48.2057 326.695 48.2594 326.713H48.2593Z" fill="white"/>
<path id="Vector_7" d="M120.674 343.715C120.413 343.926 120.152 344.137 119.892 344.355C116.402 347.202 113.185 350.369 110.285 353.814C110.056 354.076 109.828 354.346 109.609 354.615C102.669 363.107 97.5902 372.961 94.6993 383.54C93.5136 387.854 92.6814 392.258 92.211 396.707C91.5503 402.912 91.3451 409.761 88.6793 414.944C88.409 415.487 88.1008 416.01 87.757 416.509L55.0242 418.17C54.9426 418.137 54.8621 418.11 54.7802 418.076L53.4847 418.203C53.4927 417.967 53.5061 417.724 53.514 417.488C53.518 417.351 53.5294 417.214 53.5334 417.077C53.5384 416.986 53.5437 416.894 53.5428 416.811C53.5444 416.78 53.5463 416.75 53.5493 416.727C53.5484 416.644 53.5566 416.567 53.5572 416.491C53.6283 415.129 53.7068 413.766 53.8005 412.403C53.7991 412.395 53.7991 412.395 53.8049 412.388C54.3675 402.136 56.2287 391.998 59.344 382.215C59.4403 381.929 59.5348 381.636 59.646 381.35C61.099 377.11 62.9377 373.012 65.1391 369.108C66.3419 366.995 67.666 364.954 69.1047 362.994C72.8298 357.946 77.4372 353.613 82.7044 350.204C88.0807 346.623 94.1319 344.178 100.487 343.019C106.842 341.86 113.367 342.011 119.661 343.463C120.001 343.545 120.333 343.626 120.674 343.715Z" fill="#F2F2F2"/>
<path id="Vector_8" d="M120.681 344.137C105.337 347.994 91.8839 357.221 82.7591 370.145C80.7559 372.897 79.2576 375.983 78.3337 379.258C77.5287 382.664 77.6602 386.224 78.7141 389.562C79.6375 392.806 80.9503 396.071 81.0845 399.372C81.1582 400.988 80.8485 402.598 80.1807 404.071C79.513 405.543 78.5061 406.837 77.2425 407.846C74.1998 410.373 70.2581 411.529 66.3446 412.52C61.9994 413.62 57.4586 414.692 54.2357 417.72C53.8452 418.087 53.2018 417.379 53.5917 417.013C59.199 411.745 68.1767 412.335 74.6773 408.487C77.7106 406.691 80.0814 403.895 80.1893 400.086C80.2836 396.755 78.9325 393.387 77.9698 390.106C76.8971 386.847 76.6386 383.375 77.2168 379.993C77.9564 376.666 79.3233 373.51 81.2443 370.694C85.4108 364.373 90.6869 358.857 96.8175 354.415C103.914 349.229 111.931 345.441 120.443 343.252C120.979 343.113 121.213 343.999 120.681 344.137Z" fill="white"/>
<path id="Vector_9" d="M85.3776 365.812C80.829 361.511 79.6909 354.887 82.6921 350.339C82.9878 349.891 83.7767 350.427 83.4806 350.876C80.669 355.136 81.756 361.248 86.008 365.268C86.4554 365.691 85.8225 366.233 85.3776 365.812Z" fill="white"/>
<path id="Vector_10" d="M78.0335 387.948C80.7942 388.157 83.5685 387.802 86.1881 386.906C88.8078 386.011 91.218 384.592 93.2725 382.736C93.6645 382.371 94.308 383.078 93.9165 383.443C91.7737 385.369 89.2618 386.841 86.5331 387.767C83.8045 388.694 80.916 389.056 78.0431 388.832C77.4639 388.797 77.4575 387.913 78.0335 387.948Z" fill="white"/>
<path id="Vector_11" d="M104.171 350.449C104.859 351.408 105.75 352.203 106.781 352.779C107.811 353.354 108.956 353.695 110.134 353.778C110.712 353.805 110.718 354.689 110.143 354.662C108.843 354.566 107.578 354.188 106.438 353.554C105.298 352.92 104.309 352.046 103.54 350.993C103.458 350.91 103.412 350.798 103.411 350.681C103.409 350.565 103.453 350.452 103.534 350.367C103.63 350.297 103.75 350.266 103.868 350.281C103.987 350.296 104.095 350.356 104.171 350.449Z" fill="white"/>
<path id="Vector_12" d="M850.461 358.893C851.82 338.712 843.252 318.325 825.5 310.834C829.089 331.627 824.667 354.732 813.266 374.763C808.825 382.565 803.123 390.894 804.336 399.046C805.091 404.118 808.542 408.145 812.758 410.767C816.975 413.389 821.944 414.789 826.852 416.163L827.699 417.053C839.364 398.987 849.102 379.074 850.461 358.893Z" fill="#F2F2F2"/>
<path id="Vector_13" d="M825.239 311.204C834.043 324.758 837.954 340.913 836.326 356.993C836.056 360.666 835.234 364.278 833.885 367.705C832.411 371.138 830.15 374.177 827.284 376.576C824.632 378.886 821.69 380.979 819.566 383.814C818.517 385.197 817.759 386.778 817.336 388.461C816.912 390.144 816.833 391.896 817.102 393.61C817.721 397.673 819.824 401.066 822.008 404.296C824.434 407.882 827.016 411.561 827.456 416.175C827.51 416.734 828.403 416.496 828.35 415.938C827.584 407.911 820.815 403.03 818.539 395.719C817.921 393.953 817.709 392.07 817.922 390.21C818.134 388.351 818.765 386.564 819.766 384.983C821.745 381.984 824.778 379.823 827.481 377.505C830.311 375.193 832.613 372.302 834.231 369.026C835.744 365.656 836.702 362.064 837.07 358.389C837.987 350.465 837.611 342.444 835.956 334.64C834.185 326.051 830.79 317.88 825.952 310.565C825.655 310.12 824.944 310.761 825.239 311.204Z" fill="white"/>
<path id="Vector_14" d="M837.119 351.591C840.039 351.019 842.708 349.551 844.755 347.391C846.803 345.232 848.126 342.487 848.541 339.541C848.605 338.967 847.713 338.966 847.648 339.54C847.267 342.284 846.034 344.84 844.125 346.847C842.215 348.854 839.724 350.213 837.003 350.731C836.946 350.738 836.891 350.756 836.84 350.784C836.79 350.812 836.747 350.85 836.711 350.896C836.676 350.941 836.65 350.993 836.635 351.049C836.62 351.104 836.617 351.162 836.624 351.219C836.632 351.276 836.651 351.331 836.68 351.381C836.709 351.431 836.748 351.474 836.794 351.509C836.84 351.543 836.892 351.568 836.948 351.582C837.004 351.596 837.062 351.599 837.119 351.591Z" fill="white"/>
<path id="Vector_15" d="M828.762 375.56C826.583 373.936 824.772 371.869 823.449 369.495C822.127 367.121 821.322 364.494 821.087 361.787C821.032 361.228 820.138 361.465 820.194 362.023C820.443 364.84 821.287 367.572 822.669 370.038C824.051 372.505 825.94 374.651 828.212 376.335C828.646 376.653 829.194 375.876 828.762 375.56Z" fill="white"/>
<path id="Vector_16" d="M833.145 326.713C832.126 327.15 831.013 327.321 829.91 327.207C828.807 327.094 827.752 326.7 826.843 326.065C826.414 325.741 825.867 326.518 826.293 326.84C827.299 327.538 828.465 327.971 829.683 328.099C830.901 328.227 832.131 328.046 833.26 327.573C833.377 327.539 833.48 327.466 833.55 327.366C833.621 327.267 833.656 327.146 833.649 327.024C833.641 326.968 833.62 326.915 833.589 326.868C833.558 326.821 833.517 326.781 833.469 326.751C833.421 326.721 833.367 326.703 833.311 326.696C833.255 326.689 833.198 326.695 833.144 326.713H833.145Z" fill="white"/>
<path id="Vector_17" d="M760.73 343.715C760.991 343.926 761.252 344.137 761.512 344.355C765.002 347.202 768.218 350.369 771.119 353.814C771.348 354.076 771.575 354.346 771.795 354.615C778.734 363.107 783.814 372.961 786.705 383.54C787.89 387.854 788.722 392.258 789.193 396.707C789.854 402.911 790.059 409.761 792.725 414.944C792.995 415.487 793.303 416.009 793.647 416.509L826.38 418.17C826.461 418.136 826.542 418.11 826.624 418.076L827.919 418.203C827.911 417.967 827.898 417.724 827.89 417.488C827.886 417.351 827.875 417.214 827.871 417.077C827.866 416.986 827.86 416.894 827.861 416.811C827.859 416.78 827.858 416.75 827.855 416.727C827.855 416.644 827.847 416.567 827.847 416.491C827.776 415.129 827.697 413.766 827.603 412.403C827.605 412.395 827.605 412.395 827.599 412.388C827.036 402.136 825.175 391.998 822.06 382.215C821.964 381.929 821.869 381.636 821.758 381.35C820.305 377.11 818.466 373.012 816.265 369.108C815.062 366.995 813.738 364.954 812.299 362.994C808.574 357.946 803.967 353.613 798.699 350.204C793.323 346.623 787.272 344.178 780.917 343.019C774.562 341.86 768.037 342.011 761.743 343.463C761.403 343.545 761.071 343.626 760.73 343.715Z" fill="#F2F2F2"/>
<path id="Vector_18" d="M760.723 344.137C776.066 347.994 789.52 357.221 798.645 370.145C800.648 372.897 802.146 375.983 803.07 379.258C803.875 382.664 803.744 386.224 802.69 389.562C801.766 392.806 800.454 396.071 800.319 399.372C800.246 400.988 800.555 402.598 801.223 404.071C801.891 405.543 802.898 406.837 804.161 407.846C807.204 410.373 811.146 411.529 815.059 412.52C819.404 413.62 823.945 414.692 827.168 417.72C827.559 418.087 828.202 417.379 827.812 417.013C822.205 411.745 813.227 412.335 806.727 408.487C803.693 406.691 801.323 403.895 801.215 400.086C801.12 396.755 802.471 393.387 803.434 390.106C804.507 386.847 804.765 383.375 804.187 379.993C803.447 376.666 802.081 373.51 800.16 370.694C795.993 364.373 790.717 358.857 784.586 354.415C777.49 349.229 769.473 345.441 760.961 343.252C760.425 343.113 760.191 343.999 760.723 344.137Z" fill="white"/>
<path id="Vector_19" d="M796.026 365.812C800.575 361.511 801.713 354.887 798.712 350.339C798.416 349.891 797.627 350.427 797.923 350.876C800.735 355.136 799.648 361.248 795.396 365.268C794.948 365.691 795.581 366.233 796.026 365.812Z" fill="white"/>
<path id="Vector_20" d="M803.37 387.948C800.61 388.157 797.835 387.802 795.216 386.906C792.596 386.011 790.186 384.592 788.131 382.736C787.739 382.371 787.096 383.078 787.487 383.443C789.63 385.369 792.142 386.841 794.871 387.767C797.599 388.694 800.488 389.056 803.361 388.832C803.94 388.797 803.946 387.913 803.37 387.948Z" fill="white"/>
<path id="Vector_21" d="M777.233 350.449C776.545 351.408 775.654 352.203 774.623 352.779C773.593 353.354 772.448 353.695 771.27 353.778C770.692 353.805 770.686 354.689 771.26 354.662C772.561 354.566 773.826 354.188 774.966 353.554C776.106 352.92 777.095 352.046 777.864 350.993C777.946 350.91 777.992 350.798 777.993 350.681C777.994 350.565 777.95 350.452 777.87 350.367C777.774 350.297 777.654 350.266 777.536 350.281C777.417 350.296 777.309 350.356 777.233 350.449Z" fill="white"/>
<path id="Vector_22" d="M59.9632 258.983H53.9632V260.983H59.9632V258.983Z" fill="#E6E6E6"/>
<path id="Vector_23" d="M815.097 260.983H802.918V258.983H815.097V260.983ZM790.739 260.983H778.559V258.983H790.739V260.983ZM766.379 260.983H754.2V258.983H766.379V260.983ZM742.02 260.983H729.841V258.983H742.02V260.983ZM717.661 260.983H705.482V258.983H717.661V260.983ZM693.302 260.983H681.122V258.983H693.302V260.983ZM668.943 260.983H656.763V258.983H668.943V260.983ZM644.584 260.983H632.404V258.983H644.584V260.983ZM620.224 260.983H608.045V258.983H620.224V260.983ZM595.866 260.983H583.686V258.983H595.866V260.983ZM571.506 260.983H559.326V258.983H571.506V260.983ZM547.147 260.983H534.968V258.983H547.147V260.983ZM522.788 260.983H510.608V258.983H522.788V260.983ZM498.429 260.983H486.249V258.983H498.429V260.983ZM474.07 260.983H461.89V258.983H474.07V260.983ZM449.71 260.983H437.531V258.983H449.71V260.983ZM425.351 260.983H413.172V258.983H425.351V260.983ZM400.992 260.983H388.812V258.983H400.992V260.983ZM376.633 260.983H364.453V258.983H376.633V260.983ZM352.274 260.983H340.094V258.983H352.274V260.983ZM327.914 260.983H315.735V258.983H327.914V260.983ZM303.555 260.983H291.376V258.983H303.555V260.983ZM279.196 260.983H267.016V258.983H279.196V260.983ZM254.837 260.983H242.657V258.983H254.837V260.983ZM230.477 260.983H218.298V258.983H230.477V260.983ZM206.118 260.983H193.939V258.983H206.118V260.983ZM181.759 260.983H169.579V258.983H181.759V260.983ZM157.4 260.983H145.221V258.983H157.4V260.983ZM133.041 260.983H120.861V258.983H133.041V260.983ZM108.681 260.983H96.5022V258.983H108.681V260.983ZM84.3226 260.983H72.1429V258.983H84.3226V260.983Z" fill="#E6E6E6"/>
<path id="Vector_24" d="M833.278 258.983H827.278V260.983H833.278V258.983Z" fill="#E6E6E6"/>
<path id="Vector_25" d="M59.9632 244.983H53.9632V246.983H59.9632V244.983Z" fill="#E6E6E6"/>
<path id="Vector_26" d="M815.097 246.983H802.918V244.983H815.097V246.983ZM790.739 246.983H778.559V244.983H790.739V246.983ZM766.379 246.983H754.2V244.983H766.379V246.983ZM742.02 246.983H729.841V244.983H742.02V246.983ZM717.661 246.983H705.482V244.983H717.661V246.983ZM693.302 246.983H681.122V244.983H693.302V246.983ZM668.943 246.983H656.763V244.983H668.943V246.983ZM644.584 246.983H632.404V244.983H644.584V246.983ZM620.224 246.983H608.045V244.983H620.224V246.983ZM595.866 246.983H583.686V244.983H595.866V246.983ZM571.506 246.983H559.326V244.983H571.506V246.983ZM547.147 246.983H534.968V244.983H547.147V246.983ZM522.788 246.983H510.608V244.983H522.788V246.983ZM498.429 246.983H486.249V244.983H498.429V246.983ZM474.07 246.983H461.89V244.983H474.07V246.983ZM449.71 246.983H437.531V244.983H449.71V246.983ZM425.351 246.983H413.172V244.983H425.351V246.983ZM400.992 246.983H388.812V244.983H400.992V246.983ZM376.633 246.983H364.453V244.983H376.633V246.983ZM352.274 246.983H340.094V244.983H352.274V246.983ZM327.914 246.983H315.735V244.983H327.914V246.983ZM303.555 246.983H291.376V244.983H303.555V246.983ZM279.196 246.983H267.016V244.983H279.196V246.983ZM254.837 246.983H242.657V244.983H254.837V246.983ZM230.477 246.983H218.298V244.983H230.477V246.983ZM206.118 246.983H193.939V244.983H206.118V246.983ZM181.759 246.983H169.579V244.983H181.759V246.983ZM157.4 246.983H145.221V244.983H157.4V246.983ZM133.041 246.983H120.861V244.983H133.041V246.983ZM108.681 246.983H96.5022V244.983H108.681V246.983ZM84.3226 246.983H72.1429V244.983H84.3226V246.983Z" fill="#E6E6E6"/>
<path id="Vector_27" d="M833.278 244.983H827.278V246.983H833.278V244.983Z" fill="#E6E6E6"/>
<path id="Vector_28" d="M59.9632 215.983H53.9632V217.983H59.9632V215.983Z" fill="#E6E6E6"/>
<path id="Vector_29" d="M815.097 217.983H802.918V215.983H815.097V217.983ZM790.739 217.983H778.559V215.983H790.739V217.983ZM766.379 217.983H754.2V215.983H766.379V217.983ZM742.02 217.983H729.841V215.983H742.02V217.983ZM717.661 217.983H705.482V215.983H717.661V217.983ZM693.302 217.983H681.122V215.983H693.302V217.983ZM668.943 217.983H656.763V215.983H668.943V217.983ZM644.584 217.983H632.404V215.983H644.584V217.983ZM620.224 217.983H608.045V215.983H620.224V217.983ZM595.866 217.983H583.686V215.983H595.866V217.983ZM571.506 217.983H559.326V215.983H571.506V217.983ZM547.147 217.983H534.968V215.983H547.147V217.983ZM522.788 217.983H510.608V215.983H522.788V217.983ZM498.429 217.983H486.249V215.983H498.429V217.983ZM474.07 217.983H461.89V215.983H474.07V217.983ZM449.71 217.983H437.531V215.983H449.71V217.983ZM425.351 217.983H413.172V215.983H425.351V217.983ZM400.992 217.983H388.812V215.983H400.992V217.983ZM376.633 217.983H364.453V215.983H376.633V217.983ZM352.274 217.983H340.094V215.983H352.274V217.983ZM327.914 217.983H315.735V215.983H327.914V217.983ZM303.555 217.983H291.376V215.983H303.555V217.983ZM279.196 217.983H267.016V215.983H279.196V217.983ZM254.837 217.983H242.657V215.983H254.837V217.983ZM230.477 217.983H218.298V215.983H230.477V217.983ZM206.118 217.983H193.939V215.983H206.118V217.983ZM181.759 217.983H169.579V215.983H181.759V217.983ZM157.4 217.983H145.221V215.983H157.4V217.983ZM133.041 217.983H120.861V215.983H133.041V217.983ZM108.681 217.983H96.5022V215.983H108.681V217.983ZM84.3226 217.983H72.1429V215.983H84.3226V217.983Z" fill="#E6E6E6"/>
<path id="Vector_30" d="M833.278 215.983H827.278V217.983H833.278V215.983Z" fill="#E6E6E6"/>
<path id="Vector_31" d="M59.9632 195.983H53.9632V197.983H59.9632V195.983Z" fill="#E6E6E6"/>
<path id="Vector_32" d="M815.097 197.983H802.918V195.983H815.097V197.983ZM790.739 197.983H778.559V195.983H790.739V197.983ZM766.379 197.983H754.2V195.983H766.379V197.983ZM742.02 197.983H729.841V195.983H742.02V197.983ZM717.661 197.983H705.482V195.983H717.661V197.983ZM693.302 197.983H681.122V195.983H693.302V197.983ZM668.943 197.983H656.763V195.983H668.943V197.983ZM644.584 197.983H632.404V195.983H644.584V197.983ZM620.224 197.983H608.045V195.983H620.224V197.983ZM595.866 197.983H583.686V195.983H595.866V197.983ZM571.506 197.983H559.326V195.983H571.506V197.983ZM547.147 197.983H534.968V195.983H547.147V197.983ZM522.788 197.983H510.608V195.983H522.788V197.983ZM498.429 197.983H486.249V195.983H498.429V197.983ZM474.07 197.983H461.89V195.983H474.07V197.983ZM449.71 197.983H437.531V195.983H449.71V197.983ZM425.351 197.983H413.172V195.983H425.351V197.983ZM400.992 197.983H388.812V195.983H400.992V197.983ZM376.633 197.983H364.453V195.983H376.633V197.983ZM352.274 197.983H340.094V195.983H352.274V197.983ZM327.914 197.983H315.735V195.983H327.914V197.983ZM303.555 197.983H291.376V195.983H303.555V197.983ZM279.196 197.983H267.016V195.983H279.196V197.983ZM254.837 197.983H242.657V195.983H254.837V197.983ZM230.477 197.983H218.298V195.983H230.477V197.983ZM206.118 197.983H193.939V195.983H206.118V197.983ZM181.759 197.983H169.579V195.983H181.759V197.983ZM157.4 197.983H145.221V195.983H157.4V197.983ZM133.041 197.983H120.861V195.983H133.041V197.983ZM108.681 197.983H96.5022V195.983H108.681V197.983ZM84.3226 197.983H72.1429V195.983H84.3226V197.983Z" fill="#E6E6E6"/>
<path id="Vector_33" d="M833.278 195.983H827.278V197.983H833.278V195.983Z" fill="#E6E6E6"/>
<path id="Vector_34" d="M59.9632 152.983H53.9632V154.983H59.9632V152.983Z" fill="#E6E6E6"/>
<path id="Vector_35" d="M815.097 154.983H802.918V152.983H815.097V154.983ZM790.739 154.983H778.559V152.983H790.739V154.983ZM766.379 154.983H754.2V152.983H766.379V154.983ZM742.02 154.983H729.841V152.983H742.02V154.983ZM717.661 154.983H705.482V152.983H717.661V154.983ZM693.302 154.983H681.122V152.983H693.302V154.983ZM668.943 154.983H656.763V152.983H668.943V154.983ZM644.584 154.983H632.404V152.983H644.584V154.983ZM620.224 154.983H608.045V152.983H620.224V154.983ZM595.866 154.983H583.686V152.983H595.866V154.983ZM571.506 154.983H559.326V152.983H571.506V154.983ZM547.147 154.983H534.968V152.983H547.147V154.983ZM522.788 154.983H510.608V152.983H522.788V154.983ZM498.429 154.983H486.249V152.983H498.429V154.983ZM474.07 154.983H461.89V152.983H474.07V154.983ZM449.71 154.983H437.531V152.983H449.71V154.983ZM425.351 154.983H413.172V152.983H425.351V154.983ZM400.992 154.983H388.812V152.983H400.992V154.983ZM376.633 154.983H364.453V152.983H376.633V154.983ZM352.274 154.983H340.094V152.983H352.274V154.983ZM327.914 154.983H315.735V152.983H327.914V154.983ZM303.555 154.983H291.376V152.983H303.555V154.983ZM279.196 154.983H267.016V152.983H279.196V154.983ZM254.837 154.983H242.657V152.983H254.837V154.983ZM230.477 154.983H218.298V152.983H230.477V154.983ZM206.118 154.983H193.939V152.983H206.118V154.983ZM181.759 154.983H169.579V152.983H181.759V154.983ZM157.4 154.983H145.221V152.983H157.4V154.983ZM133.041 154.983H120.861V152.983H133.041V154.983ZM108.681 154.983H96.5022V152.983H108.681V154.983ZM84.3226 154.983H72.1429V152.983H84.3226V154.983Z" fill="#E6E6E6"/>
<path id="Vector_36" d="M833.278 152.983H827.278V154.983H833.278V152.983Z" fill="#E6E6E6"/>
<path id="Vector_37" d="M752.89 121.224C761.627 121.224 768.711 114.141 768.711 105.403C768.711 96.6654 761.627 89.5821 752.89 89.5821C744.152 89.5821 737.069 96.6654 737.069 105.403C737.069 114.141 744.152 121.224 752.89 121.224Z" fill="#9E616A"/>
<path id="Vector_38" d="M731.827 63.4773C729.129 62.3256 726.162 61.952 723.262 62.3987C720.363 62.8453 717.646 64.0945 715.419 66.0048C713.242 67.9696 711.584 70.4426 710.594 73.2034C709.604 75.9641 709.313 78.9269 709.745 81.8278C710.617 87.7279 714.203 92.8086 717.51 97.7724C720.816 102.736 724.046 108.175 724.042 114.139C724.04 118.435 722.334 122.554 719.298 125.594C716.263 128.633 712.146 130.345 707.85 130.354C712.892 132.524 718.154 134.737 723.637 134.48C729.12 134.223 734.867 130.698 735.761 125.282C736.406 121.38 734.491 117.575 732.895 113.956C730.294 108.06 728.414 101.872 727.296 95.5257C726.762 92.4967 726.415 89.3123 727.403 86.3996C728.189 84.2412 729.648 82.3926 731.565 81.1264C733.482 79.8602 735.755 79.2435 738.049 79.3672L739.86 77.7373C740.171 74.8201 739.563 71.8788 738.124 69.3228C736.684 66.7669 734.483 64.7235 731.827 63.4773Z" fill="#2F2E41"/>
<g id="group">
<path id="Vector_43" d="M302.971 71.4228C302.55 69.1949 300.277 68.1759 298.331 67.6821C292.684 66.2413 286.809 65.9188 281.038 66.7325C276.832 67.3325 272.525 68.6553 269.473 71.939C267.011 74.7039 265.617 78.2559 265.539 81.9568C265.415 84.1696 265.909 86.3734 266.967 88.321C267.44 89.2277 268.141 89.9958 269.001 90.5499C269.861 91.1039 270.85 91.425 271.871 91.4814L272.066 92.1621C276.29 91.4817 280.316 89.897 283.87 87.5164C287.424 85.1359 290.422 82.0157 292.658 78.3693C291.759 81.5808 289.969 84.4721 287.496 86.7093C293.026 84.4965 297.833 80.7918 301.381 76.0078C302.35 74.7217 303.291 73.1177 302.971 71.4228Z" fill="#2F2E41"/>
<path id="Vector_44" d="M753.93 166.885C783.993 166.885 808.364 142.514 808.364 112.451C808.364 82.3873 783.993 58.0161 753.93 58.0161C723.867 58.0161 699.496 82.3873 699.496 112.451C699.496 142.514 723.867 166.885 753.93 166.885Z" fill="#F2F2F2"/>
<path id="Vector_45" d="M738.982 92.025C743.227 92.025 746.667 88.5842 746.667 84.3398C746.667 80.0954 743.227 76.6546 738.982 76.6546C734.738 76.6546 731.297 80.0954 731.297 84.3398C731.297 88.5842 734.738 92.025 738.982 92.025Z" fill="#2F2E41"/>
<path id="Vector_46" d="M751.279 121.229C762.031 121.229 770.748 112.512 770.748 101.76C770.748 91.0071 762.031 82.2904 751.279 82.2904C740.526 82.2904 731.809 91.0071 731.809 101.76C731.809 112.512 740.526 121.229 751.279 121.229Z" fill="#2F2E41"/>
<path id="Vector_47" d="M763.634 89.2758C760.861 87.5857 757.686 86.6715 754.439 86.6287C751.193 86.5858 747.994 87.4161 745.178 89.0325C742.362 90.649 740.032 92.9922 738.432 95.8173C736.832 98.6424 736.02 101.846 736.081 105.092C744.143 107.116 752.612 108.665 761.209 105.576L763.239 100.607L764.436 105.58C767.054 106.65 769.679 107.555 772.304 105.569C772.411 102.332 771.667 99.1236 770.145 96.2644C768.624 93.4051 766.378 90.9953 763.634 89.2758Z" fill="#2F2E41"/>
<path id="Vector_48" d="M794.888 148.871C785.457 159.602 772.185 166.194 757.937 167.223C743.688 168.253 729.606 163.638 718.73 154.375L723.399 141.347C724.455 139.033 726.12 137.05 728.216 135.611C730.313 134.171 732.761 133.329 735.3 133.175L738.27 132.993L745.353 126.885C745.353 126.885 764.436 126.203 764.153 125.877L775.713 132.83L775.703 132.782L780.248 133.06C782.786 133.213 785.235 134.055 787.332 135.495C789.428 136.934 791.093 138.918 792.148 141.232L794.888 148.871Z" fill="#6C63FF"/>
<path id="Vector_49" d="M653.488 54.5309C653.469 65.297 650.258 75.8157 644.261 84.7568C638.263 93.6978 629.75 100.66 619.796 104.762C609.842 108.864 598.895 109.923 588.339 107.804C577.784 105.685 568.094 100.483 560.495 92.857C552.895 85.2308 547.728 75.5223 545.646 64.9594C543.565 54.3964 544.662 43.4534 548.8 33.5141C552.938 23.5749 559.93 15.0858 568.892 9.12031C577.854 3.15486 588.384 -0.0190032 599.15 8.56013e-05C606.304 -0.00579717 613.388 1.40209 619.996 4.14282C626.604 6.88355 632.605 10.9031 637.654 15.9705C642.704 21.0378 646.702 27.0531 649.419 33.6706C652.137 40.2881 653.519 47.3773 653.488 54.5309Z" fill="#F2F2F2"/>
<path id="Vector_50" d="M573.824 36.7269C576.075 29.5536 581.193 22.9745 588.272 20.5495C595.351 18.1245 605.717 21.8185 611.039 27.1225C620.774 36.8245 623.149 70.1542 616.461 80.6868C615.131 80.6164 610.54 80.5643 609.194 80.5139L607.289 74.1656V80.4513C605.144 80.385 602.982 80.3392 600.804 80.314C593.499 80.2234 586.514 77.3044 581.317 72.1705C576.12 67.0366 573.116 60.0878 572.937 52.7849C572.762 45.7986 572.937 39.5538 573.824 36.7269Z" fill="#2F2E41"/>
<path id="Vector_51" d="M598.246 60.5011C606.814 60.5011 613.76 53.5555 613.76 44.9877C613.76 36.4199 606.814 29.4743 598.246 29.4743C589.679 29.4743 582.733 36.4199 582.733 44.9877C582.733 53.5555 589.679 60.5011 598.246 60.5011Z" fill="#9E616A"/>
<path id="Vector_52" d="M584.858 31.3632L602.72 22.4191C606.372 24.0647 609.517 26.6573 611.829 29.928C614.141 33.1988 615.536 37.0285 615.87 41.0201L616.315 46.3531L608.835 44.4491L608.016 37.6299L606.745 43.9172L603.293 43.0389L603.326 32.452L599.872 43.0313L587.544 40.1989L584.858 31.3632Z" fill="#2F2E41"/>
<path id="Vector_53" d="M639.448 90.4569C630.017 101.187 616.745 107.779 602.496 108.809C588.248 109.839 574.166 105.224 563.29 95.9608L567.959 82.9328C569.014 80.6189 570.679 78.6358 572.776 77.1961C574.872 75.7565 577.321 74.9147 579.86 74.7609L582.83 74.5786L589.913 68.4701C589.913 68.4701 608.996 67.7887 608.713 67.4624L620.273 74.4154L620.263 74.3674L624.807 74.6458C627.346 74.7989 629.795 75.6404 631.892 77.0801C633.988 78.5198 635.653 80.5033 636.708 82.8176L639.448 90.4569Z" fill="#6C63FF"/>
<path id="Vector_54" d="M449.409 196.885C479.472 196.885 503.843 172.514 503.843 142.451C503.843 112.387 479.472 88.0161 449.409 88.0161C419.345 88.0161 394.974 112.387 394.974 142.451C394.974 172.514 419.345 196.885 449.409 196.885Z" fill="#F2F2F2"/>
<path id="Vector_55" d="M447.906 149.194C457.503 149.194 465.282 141.414 465.282 131.818C465.282 122.221 457.503 114.442 447.906 114.442C438.31 114.442 430.53 122.221 430.53 131.818C430.53 141.414 438.31 149.194 447.906 149.194Z" fill="#FFB6B6"/>
<path id="Vector_56" d="M490.246 178.871C480.816 189.602 467.544 196.194 453.295 197.223C439.047 198.253 424.965 193.638 414.089 184.375L418.758 171.347C419.813 169.033 421.478 167.05 423.575 165.611C425.671 164.171 428.12 163.329 430.658 163.175L433.629 162.993L440.711 156.885C440.711 156.885 459.795 156.203 459.512 155.877L471.072 162.83L471.062 162.782L475.606 163.06C478.145 163.213 480.594 164.055 482.69 165.495C484.787 166.934 486.452 168.918 487.507 171.232L490.246 178.871Z" fill="#6C63FF"/>
<path id="Vector_57" d="M466.232 121.041C464.764 115.786 461.428 111.247 456.85 108.277C453.202 105.944 448.65 104.752 444.517 105.986C440.384 107.22 436.963 111.276 437.233 115.658C436.468 115.457 435.661 115.474 434.905 115.708C434.148 115.941 433.472 116.382 432.954 116.98C431.917 118.204 431.196 119.664 430.854 121.231C429.528 126.144 429.616 131.332 431.107 136.198L431.025 136.896C433.042 136.562 434.571 134.832 435.522 132.989C436.473 131.146 437.02 129.101 438.051 127.303C439.082 125.505 440.793 123.901 442.835 123.845L442.655 126.966C444.412 126.061 446.169 125.156 447.926 124.251C447.508 125.25 447.09 126.25 446.672 127.25C448.206 126.608 449.741 125.967 451.275 125.326C451.103 126.287 450.932 127.248 450.76 128.209C451.163 127.375 451.73 126.631 452.428 126.022C453.126 125.413 453.941 124.953 454.822 124.668C455.703 124.383 456.633 124.279 457.556 124.364C458.478 124.449 459.374 124.72 460.188 125.161C462.023 126.395 463.345 128.256 463.908 130.394C464.466 132.528 464.765 134.721 464.799 136.926C467.17 131.975 467.679 126.336 466.232 121.041Z" fill="#2F2E41"/>
</g>
<path id="Vector_60" d="M118.067 163.964C118.034 163.874 118.005 163.782 117.973 163.692C117.909 163.748 117.848 163.806 117.779 163.858L118.067 163.964Z" fill="#2F2E41"/>
<path id="Vector_62" d="M134.451 263.526H129.255V415.828H134.451V263.526Z" fill="#3F3D56"/>
<path id="Vector_63" d="M290.014 192.395H284.818V415.828H290.014V192.395Z" fill="#3F3D56"/>
<path id="Vector_64" d="M445.898 239.16H440.702V415.828H445.898V239.16Z" fill="#3F3D56"/>
<path id="Vector_65" d="M601.782 153.424H596.586V415.828H601.782V153.424Z" fill="#3F3D56"/>
<path id="Vector_66" d="M757.665 213.179H752.469V415.828H757.665V213.179Z" fill="#3F3D56"/>
<g id="Group2">
<path id="Vector_39" d="M344.488 95.1966C344.488 105.963 341.296 116.487 335.314 125.439C329.333 134.39 320.832 141.367 310.885 145.487C300.938 149.607 289.993 150.685 279.434 148.585C268.875 146.485 259.176 141.3 251.563 133.688C243.95 126.075 238.766 116.375 236.665 105.816C234.565 95.257 235.643 84.312 239.763 74.3655C243.883 64.4189 250.86 55.9173 259.812 49.936C268.763 43.9547 279.288 40.7622 290.054 40.7622C297.211 40.7303 304.304 42.1166 310.923 44.8409C317.541 47.5652 323.555 51.5736 328.616 56.6346C333.677 61.6957 337.685 67.7091 340.409 74.3278C343.134 80.9465 344.52 88.0392 344.488 95.1966Z" fill="#F2F2F2"/>
<path id="Vector_40" d="M312.316 82.1721L312.047 82.6576C314.444 76.7493 312.264 69.4689 307.988 65.0139C303.711 60.5589 297.766 58.5222 291.912 57.7141C287.566 56.9477 283.097 57.2949 278.923 58.7235C272.939 61.0288 268.367 66.3652 264.55 71.9165C262.804 74.4556 261.087 77.3504 261.261 80.524C261.422 83.4691 263.17 85.9684 264.602 88.467C266.034 90.9657 267.229 94.0658 266.202 96.7929C265.59 98.4181 264.295 99.5886 263.245 100.918C262.196 102.247 261.332 104.044 261.839 105.712C262.064 106.351 262.451 106.919 262.962 107.363C263.473 107.807 264.09 108.111 264.753 108.245C266.038 108.46 267.352 108.428 268.625 108.153L301.994 103.112C304.261 102.769 306.412 101.883 308.263 100.53C310.114 99.1763 311.611 97.3951 312.625 95.3383C313.639 93.2814 314.14 91.0099 314.086 88.7173C314.033 86.4248 313.425 84.1792 312.316 82.1721Z" fill="#2F2E41"/>
<path id="Vector_41" d="M287.496 102.879C296.506 102.879 303.811 95.5749 303.811 86.5646C303.811 77.5543 296.506 70.25 287.496 70.25C278.486 70.25 271.181 77.5543 271.181 86.5646C271.181 95.5749 278.486 102.879 287.496 102.879Z" fill="#FFB9B9"/>
<path id="Vector_42" d="M330.928 131.137C321.497 141.868 308.225 148.46 293.976 149.489C279.728 150.519 265.646 145.904 254.77 136.641L259.439 123.613C260.494 121.299 262.159 119.316 264.256 117.877C266.352 116.437 268.801 115.595 271.34 115.441L274.31 115.259L281.392 109.151C281.392 109.151 300.476 108.469 300.193 108.143L311.753 115.096L311.743 115.048L316.287 115.326C318.826 115.479 321.275 116.321 323.372 117.761C325.468 119.2 327.133 121.184 328.188 123.498L330.928 131.137Z" fill="#6C63FF"/>
<path id="Vector_67" d="M287.737 211.872C296.516 211.872 303.633 204.755 303.633 195.976C303.633 187.197 296.516 180.081 287.737 180.081C278.958 180.081 271.841 187.197 271.841 195.976C271.841 204.755 278.958 211.872 287.737 211.872Z" fill="#6C63FF"/>
</g>
<path id="Vector_68" d="M599.504 170.303C608.283 170.303 615.4 163.186 615.4 154.407C615.4 145.628 608.283 138.512 599.504 138.512C590.725 138.512 583.608 145.628 583.608 154.407C583.608 163.186 590.725 170.303 599.504 170.303Z" fill="#6C63FF"/>
<path id="Vector_69" d="M443.62 256.039C452.399 256.039 459.516 248.922 459.516 240.143C459.516 231.364 452.399 224.248 443.62 224.248C434.841 224.248 427.725 231.364 427.725 240.143C427.725 248.922 434.841 256.039 443.62 256.039Z" fill="#6C63FF"/>
<g id="Group1">
<path id="Vector_58" d="M134.27 221.631C164.333 221.631 188.704 197.26 188.704 167.197C188.704 137.134 164.333 112.762 134.27 112.762C104.207 112.762 79.8355 137.134 79.8355 167.197C79.8355 197.26 104.207 221.631 134.27 221.631Z" fill="#F2F2F2"/>
<path id="ab6171fa-7d69-4734-b81c-8dff60f9761b" d="M133.072 172.843C142.192 172.843 149.586 165.45 149.586 156.329C149.586 147.209 142.192 139.815 133.072 139.815C123.951 139.815 116.557 147.209 116.557 156.329C116.557 165.45 123.951 172.843 133.072 172.843Z" fill="#9E616A"/>
<path id="Vector_59" d="M174.407 203.137C164.976 213.868 151.704 220.46 137.456 221.489C123.207 222.519 109.125 217.904 98.2497 208.641L102.919 195.613C103.974 193.299 105.639 191.316 107.735 189.877C109.832 188.437 112.281 187.595 114.819 187.441L117.789 187.259L124.872 181.151C124.872 181.151 143.956 180.469 143.673 180.143L155.232 187.096L155.223 187.048L159.767 187.326C162.305 187.479 164.754 188.321 166.851 189.761C168.948 191.2 170.613 193.184 171.667 195.498L174.407 203.137Z" fill="#6C63FF"/>
<path id="Vector_61" d="M152.854 150.454C152.769 148.778 152.33 147.14 151.566 145.646C150.802 144.152 149.73 142.838 148.42 141.789C147.378 141.138 146.46 140.307 145.707 139.336C145.344 138.594 145.036 137.826 144.786 137.038C143.518 134.02 139.905 132.417 136.664 132.874C135.053 133.18 133.519 133.808 132.156 134.72C130.793 135.632 129.627 136.81 128.729 138.183C127.799 137.737 126.759 137.567 125.735 137.694C124.711 137.82 123.744 138.237 122.949 138.896C122.154 139.554 121.565 140.427 121.251 141.41C120.937 142.393 120.911 143.446 121.177 144.443C119.498 143.091 116.784 144.173 115.736 146.056C114.688 147.94 114.855 150.244 115.166 152.377C115.73 156.231 116.67 160.021 117.973 163.692C119.607 162.253 119.506 159.632 119.307 157.417C119.099 155.115 119.223 152.305 121.236 151.17C123.18 150.072 125.54 151.277 127.684 151.9C129.379 152.38 131.158 152.487 132.898 152.213C134.639 151.939 136.299 151.292 137.765 150.314C138.82 149.475 139.927 148.704 141.08 148.005C141.662 147.661 142.323 147.474 142.999 147.462C143.675 147.45 144.343 147.614 144.937 147.936C145.877 148.747 146.508 149.857 146.725 151.079C147.55 153.878 148.376 156.677 149.201 159.477C150.413 158.316 151.365 156.912 151.995 155.357C152.624 153.802 152.917 152.131 152.854 150.454Z" fill="#2F2E41"/>
<path id="Vector_70" d="M131.853 279.422C140.632 279.422 147.749 272.305 147.749 263.526C147.749 254.747 140.632 247.63 131.853 247.63C123.074 247.63 115.957 254.747 115.957 263.526C115.957 272.305 123.074 279.422 131.853 279.422Z" fill="#6C63FF"/>
</g>
<path id="Vector_71" d="M755.388 227.46C764.167 227.46 771.284 220.344 771.284 211.565C771.284 202.786 764.167 195.669 755.388 195.669C746.609 195.669 739.492 202.786 739.492 211.565C739.492 220.344 746.609 227.46 755.388 227.46Z" fill="#6C63FF"/>
<path id="Vector_72" d="M866.892 414.258H22.998L17.6994 416.907C17.6994 417.61 17.9786 418.284 18.4754 418.781C18.9722 419.277 19.6461 419.556 20.3487 419.557H866.892C867.595 419.557 868.269 419.277 868.765 418.781C869.262 418.284 869.541 417.61 869.541 416.907C869.541 416.205 869.262 415.531 868.765 415.034C868.269 414.537 867.595 414.258 866.892 414.258Z" fill="#3F3D56"/>
<path id="Vector_73" d="M19.8958 431.548C28.6748 431.548 35.7915 424.432 35.7915 415.653C35.7915 406.874 28.6748 399.757 19.8958 399.757C11.1168 399.757 4 406.874 4 415.653C4 424.432 11.1168 431.548 19.8958 431.548Z" fill="#3F3D56"/>
<path id="Vector_74" d="M131.896 477.548C140.675 477.548 147.792 470.432 147.792 461.653C147.792 452.874 140.675 445.757 131.896 445.757C123.117 445.757 116 452.874 116 461.653C116 470.432 123.117 477.548 131.896 477.548Z" fill="#E6E6E6"/>
<path id="Vector_75" d="M287.896 477.548C296.675 477.548 303.792 470.432 303.792 461.653C303.792 452.874 296.675 445.757 287.896 445.757C279.117 445.757 272 452.874 272 461.653C272 470.432 279.117 477.548 287.896 477.548Z" fill="#E6E6E6"/>
<path id="Vector_76" d="M443.896 477.548C452.675 477.548 459.792 470.432 459.792 461.653C459.792 452.874 452.675 445.757 443.896 445.757C435.117 445.757 428 452.874 428 461.653C428 470.432 435.117 477.548 443.896 477.548Z" fill="#E6E6E6"/>
<path id="Vector_77" d="M598.896 477.548C607.675 477.548 614.792 470.432 614.792 461.653C614.792 452.874 607.675 445.757 598.896 445.757C590.117 445.757 583 452.874 583 461.653C583 470.432 590.117 477.548 598.896 477.548Z" fill="#E6E6E6"/>
<path id="Vector_78" d="M754.896 477.548C763.675 477.548 770.792 470.432 770.792 461.653C770.792 452.874 763.675 445.757 754.896 445.757C746.117 445.757 739 452.874 739 461.653C739 470.432 746.117 477.548 754.896 477.548Z" fill="#E6E6E6"/>
<path id="Vector_79" d="M871.896 431.548C880.675 431.548 887.792 424.432 887.792 415.653C887.792 406.874 880.675 399.757 871.896 399.757C863.117 399.757 856 406.874 856 415.653C856 424.432 863.117 431.548 871.896 431.548Z" fill="#3F3D56"/>
</g>
</g>
<defs>
<filter id="filter0_i_0_3" x="4" y="0" width="883.792" height="481.548" filterUnits="userSpaceOnUse" color-interpolation-filters="sRGB">
<feFlood flood-opacity="0" result="BackgroundImageFix"/>
<feBlend mode="normal" in="SourceGraphic" in2="BackgroundImageFix" result="shape"/>
<feColorMatrix in="SourceAlpha" type="matrix" values="0 0 0 0 0 0 0 0 0 0 0 0 0 0 0 0 0 0 127 0" result="hardAlpha"/>
<feOffset dy="4"/>
<feGaussianBlur stdDeviation="2"/>
<feComposite in2="hardAlpha" operator="arithmetic" k2="-1" k3="1"/>
<feColorMatrix type="matrix" values="0 0 0 0 0 0 0 0 0 0 0 0 0 0 0 0 0 0 0.25 0"/>
<feBlend mode="normal" in2="shape" result="effect1_innerShadow_0_3"/>
</filter>
<clipPath id="clip0_0_3">
<rect width="892" height="486" fill="white"/>
</clipPath>
 </defs>
</svg>
